<?xml version="1.0" encoding="us-ascii" standalone="no"?><svg xmlns="http://www.w3.org/2000/svg" xmlns:xlink="http://www.w3.org/1999/xlink" contentStyleType="text/css" height="1045.8333px" preserveAspectRatio="none" style="width:1502px;height:1045px;" version="1.1" viewBox="0 0 1502 1045" width="1502.0833px" zoomAndPan="magnify"><defs><linearGradient id="g1qwj7o11s0gwu0" x1="50%" x2="50%" y1="0%" y2="100%"><stop offset="0%" stop-color="#59B6EC"/><stop offset="100%" stop-color="#2FA4E7"/></linearGradient><linearGradient id="g1qwj7o11s0gwu1" x1="50%" x2="50%" y1="0%" y2="100%"><stop offset="0%" stop-color="#2FA4E7"/><stop offset="100%" stop-color="#2683B9"/></linearGradient></defs><g><!--class Vista--><g id="elem_Vista"><rect codeLine="3" fill="url(#g1qwj7o11s0gwu0)" height="359.6517" id="Vista" rx="4.1667" ry="4.1667" style="stroke:#2FA4E7;stroke-width:1.0416666666666667;" width="171.875" x="716.6667" y="17.7083"/><rect fill="url(#g1qwj7o11s0gwu1)" height="34.1715" rx="4.1667" ry="4.1667" style="stroke:url(#g1qwj7o11s0gwu1);stroke-width:1.0416666666666667;" width="171.875" x="716.6667" y="17.7083"/><rect fill="url(#g1qwj7o11s0gwu1)" height="4.1667" style="stroke:url(#g1qwj7o11s0gwu1);stroke-width:1.0416666666666667;" width="171.875" x="716.6667" y="47.7132"/><rect codeLine="3" fill="none" height="359.6517" id="Vista" rx="4.1667" ry="4.1667" style="stroke:#2FA4E7;stroke-width:1.0416666666666667;" width="171.875" x="716.6667" y="17.7083"/><ellipse cx="778.6458" cy="34.7941" fill="none" rx="10.4167" ry="10.4167" style="stroke:#2683B9;stroke-width:1.0416666666666667;"/><path d="M780.5501,39.2212 Q780.127,39.4328 779.6549,39.5467 Q779.1829,39.6606 778.6784,39.6606 Q776.8229,39.6606 775.8464,38.4562 Q774.8861,37.2355 774.8861,34.9406 Q774.8861,32.6294 775.8464,31.425 Q776.8229,30.2043 778.6784,30.2043 Q779.1829,30.2043 779.6549,30.3182 Q780.1432,30.4159 780.5501,30.6437 L780.5501,32.6457 Q780.0944,32.2225 779.6549,32.0272 Q779.2155,31.8156 778.7598,31.8156 Q777.7669,31.8156 777.2624,32.6131 Q776.7578,33.3944 776.7578,34.9406 Q776.7578,36.4705 777.2624,37.2518 Q777.7669,38.033 778.7598,38.033 Q779.2155,38.033 779.6549,37.8377 Q780.0944,37.6424 780.5501,37.2192 L780.5501,39.2212 Z " fill="#FFFFFF"/><text fill="#F8F9FA" font-family="Verdana" font-size="11.4583" lengthAdjust="spacing" textLength="29.1667" x="803.6458" y="38.7609">Vista</text><line style="stroke:#2FA4E7;stroke-width:1.0416666666666667;" x1="717.7083" x2="887.5" y1="51.8799" y2="51.8799"/><rect fill="none" height="6.25" style="stroke:#2683B9;stroke-width:1.0416666666666667;" width="6.25" x="725" y="66.3615"/><text fill="#F8F9FA" font-family="Verdana" font-size="11.4583" lengthAdjust="spacing" textLength="72.9167" x="741.6667" y="71.8908">base: JPanel</text><rect fill="none" height="6.25" style="stroke:#2683B9;stroke-width:1.0416666666666667;" width="6.25" x="725" y="90.1164"/><text fill="#F8F9FA" font-family="Verdana" font-size="11.4583" lengthAdjust="spacing" textLength="83.3333" x="741.6667" y="95.6457">pAbajo: JPanel</text><rect fill="none" height="6.25" style="stroke:#2683B9;stroke-width:1.0416666666666667;" width="6.25" x="725" y="113.8713"/><text fill="#F8F9FA" font-family="Verdana" font-size="11.4583" lengthAdjust="spacing" textLength="86.4583" x="741.6667" y="119.4005">pArriba: JPanel</text><rect fill="none" height="6.25" style="stroke:#2683B9;stroke-width:1.0416666666666667;" width="6.25" x="725" y="137.6261"/><text fill="#F8F9FA" font-family="Verdana" font-size="11.4583" lengthAdjust="spacing" textLength="78.125" x="741.6667" y="143.1554">lienzo: Lienzo</text><rect fill="none" height="6.25" style="stroke:#2683B9;stroke-width:1.0416666666666667;" width="6.25" x="725" y="161.381"/><text fill="#F8F9FA" font-family="Verdana" font-size="11.4583" lengthAdjust="spacing" textLength="100" x="741.6667" y="166.9103">pBotones: JPanel</text><rect fill="none" height="6.25" style="stroke:#2683B9;stroke-width:1.0416666666666667;" width="6.25" x="725" y="185.1359"/><text fill="#F8F9FA" font-family="Verdana" font-size="11.4583" lengthAdjust="spacing" textLength="94.7917" x="741.6667" y="190.6652">tablero: Tablero</text><rect fill="none" height="6.25" style="stroke:#2683B9;stroke-width:1.0416666666666667;" width="6.25" x="725" y="208.8908"/><text fill="#F8F9FA" font-family="Verdana" font-size="11.4583" lengthAdjust="spacing" textLength="78.125" x="741.6667" y="214.4201">top10: Top10</text><rect fill="none" height="6.25" style="stroke:#2683B9;stroke-width:1.0416666666666667;" width="6.25" x="725" y="232.6457"/><text fill="#F8F9FA" font-family="Verdana" font-size="11.4583" lengthAdjust="spacing" textLength="69.7917" x="741.6667" y="238.1749">jugadas: int</text><rect fill="none" height="6.25" style="stroke:#2683B9;stroke-width:1.0416666666666667;" width="6.25" x="725" y="256.4006"/><text fill="#F8F9FA" font-family="Verdana" font-size="11.4583" lengthAdjust="spacing" textLength="135.4167" x="741.6667" y="261.9298">jugadasText: JTextField</text><rect fill="none" height="6.25" style="stroke:#2683B9;stroke-width:1.0416666666666667;" width="6.25" x="725" y="280.1554"/><text fill="#F8F9FA" font-family="Verdana" font-size="11.4583" lengthAdjust="spacing" textLength="133.3333" x="741.6667" y="285.6847">jugadorText: JTextField</text><line style="stroke:#2FA4E7;stroke-width:1.0416666666666667;" x1="717.7083" x2="887.5" y1="297.762" y2="297.762"/><ellipse cx="728.125" cy="315.3687" fill="none" rx="3.125" ry="3.125" style="stroke:#2683B9;stroke-width:1.0416666666666667;"/><text fill="#F8F9FA" font-family="Verdana" font-size="11.4583" lengthAdjust="spacing" textLength="37.5" x="741.6667" y="317.7729">Vista()</text><ellipse cx="728.125" cy="339.1235" fill="none" rx="3.125" ry="3.125" style="stroke:#2683B9;stroke-width:1.0416666666666667;"/><text fill="#F8F9FA" font-family="Verdana" font-size="11.4583" lengthAdjust="spacing" textLength="38.5417" x="741.6667" y="341.5278">Base()</text><ellipse cx="728.125" cy="362.8784" fill="none" rx="3.125" ry="3.125" style="stroke:#2683B9;stroke-width:1.0416666666666667;"/><text fill="#F8F9FA" font-family="Verdana" font-size="11.4583" lengthAdjust="spacing" textLength="92.7083" x="741.6667" y="365.2827">mostrarTop10()</text></g><!--class Lienzo--><g id="elem_Lienzo"><rect codeLine="19" fill="url(#g1qwj7o11s0gwu0)" height="217.1224" id="Lienzo" rx="4.1667" ry="4.1667" style="stroke:#2FA4E7;stroke-width:1.0416666666666667;" width="256.25" x="1233.8542" y="500.2917"/><rect fill="url(#g1qwj7o11s0gwu1)" height="34.1715" rx="4.1667" ry="4.1667" style="stroke:url(#g1qwj7o11s0gwu1);stroke-width:1.0416666666666667;" width="256.25" x="1233.8542" y="500.2917"/><rect fill="url(#g1qwj7o11s0gwu1)" height="4.1667" style="stroke:url(#g1qwj7o11s0gwu1);stroke-width:1.0416666666666667;" width="256.25" x="1233.8542" y="530.2965"/><rect codeLine="19" fill="none" height="217.1224" id="Lienzo" rx="4.1667" ry="4.1667" style="stroke:#2FA4E7;stroke-width:1.0416666666666667;" width="256.25" x="1233.8542" y="500.2917"/><ellipse cx="1334.375" cy="517.3774" fill="none" rx="10.4167" ry="10.4167" style="stroke:#2683B9;stroke-width:1.0416666666666667;"/><path d="M1336.2793,521.8045 Q1335.8561,522.0161 1335.3841,522.13 Q1334.9121,522.244 1334.4076,522.244 Q1332.5521,522.244 1331.5755,521.0396 Q1330.6152,519.8188 1330.6152,517.5239 Q1330.6152,515.2127 1331.5755,514.0083 Q1332.5521,512.7876 1334.4076,512.7876 Q1334.9121,512.7876 1335.3841,512.9015 Q1335.8724,512.9992 1336.2793,513.2271 L1336.2793,515.229 Q1335.8236,514.8058 1335.3841,514.6105 Q1334.9447,514.3989 1334.4889,514.3989 Q1333.4961,514.3989 1332.9915,515.1965 Q1332.487,515.9777 1332.487,517.5239 Q1332.487,519.0539 1332.9915,519.8351 Q1333.4961,520.6164 1334.4889,520.6164 Q1334.9447,520.6164 1335.3841,520.4211 Q1335.8236,520.2257 1336.2793,519.8026 L1336.2793,521.8045 Z " fill="#FFFFFF"/><text fill="#F8F9FA" font-family="Verdana" font-size="11.4583" lengthAdjust="spacing" textLength="36.4583" x="1359.375" y="521.3442">Lienzo</text><line style="stroke:#2FA4E7;stroke-width:1.0416666666666667;" x1="1234.8958" x2="1489.0625" y1="534.4632" y2="534.4632"/><rect fill="none" height="6.25" style="stroke:#2683B9;stroke-width:1.0416666666666667;" width="6.25" x="1242.1875" y="548.9448"/><text fill="#F8F9FA" font-family="Verdana" font-size="11.4583" lengthAdjust="spacing" textLength="67.7083" x="1258.8542" y="554.4741">tamano: int</text><rect fill="none" height="6.25" style="stroke:#2683B9;stroke-width:1.0416666666666667;" width="6.25" x="1242.1875" y="572.6997"/><text fill="#F8F9FA" font-family="Verdana" font-size="11.4583" lengthAdjust="spacing" textLength="113.5417" x="1258.8542" y="578.229">tablero: boolean[][]</text><line style="stroke:#2FA4E7;stroke-width:1.0416666666666667;" x1="1234.8958" x2="1489.0625" y1="590.3063" y2="590.3063"/><ellipse cx="1245.3125" cy="607.9129" fill="none" rx="3.125" ry="3.125" style="stroke:#2683B9;stroke-width:1.0416666666666667;"/><text fill="#F8F9FA" font-family="Verdana" font-size="11.4583" lengthAdjust="spacing" textLength="141.6667" x="1258.8542" y="610.3172">Lienzo(int tamanoInicial)</text><ellipse cx="1245.3125" cy="631.6678" fill="none" rx="3.125" ry="3.125" style="stroke:#2683B9;stroke-width:1.0416666666666667;"/><text fill="#F8F9FA" font-family="Verdana" font-size="11.4583" lengthAdjust="spacing" textLength="177.0833" x="1258.8542" y="634.0721">setTamano(int nuevoTamano)</text><ellipse cx="1245.3125" cy="655.4227" fill="none" rx="3.125" ry="3.125" style="stroke:#2683B9;stroke-width:1.0416666666666667;"/><text fill="#F8F9FA" font-family="Verdana" font-size="11.4583" lengthAdjust="spacing" textLength="75" x="1258.8542" y="657.827">getTamano()</text><ellipse cx="1245.3125" cy="679.1776" fill="none" rx="3.125" ry="3.125" style="stroke:#2683B9;stroke-width:1.0416666666666667;"/><text fill="#F8F9FA" font-family="Verdana" font-size="11.4583" lengthAdjust="spacing" textLength="219.7917" x="1258.8542" y="681.5818">setTablero(boolean[][] nuevoTablero)</text><ellipse cx="1245.3125" cy="702.9325" fill="none" rx="3.125" ry="3.125" style="stroke:#2683B9;stroke-width:1.0416666666666667;"/><text fill="#F8F9FA" font-family="Verdana" font-size="11.4583" lengthAdjust="spacing" textLength="169.7917" x="1258.8542" y="705.3367">paintComponent(Graphics g)</text></g><!--class Tablero--><g id="elem_Tablero"><rect codeLine="29" fill="url(#g1qwj7o11s0gwu0)" height="335.8968" id="Tablero" rx="4.1667" ry="4.1667" style="stroke:#2FA4E7;stroke-width:1.0416666666666667;" width="200" x="351.5625" y="440.9063"/><rect fill="url(#g1qwj7o11s0gwu1)" height="34.1715" rx="4.1667" ry="4.1667" style="stroke:url(#g1qwj7o11s0gwu1);stroke-width:1.0416666666666667;" width="200" x="351.5625" y="440.9063"/><rect fill="url(#g1qwj7o11s0gwu1)" height="4.1667" style="stroke:url(#g1qwj7o11s0gwu1);stroke-width:1.0416666666666667;" width="200" x="351.5625" y="470.9111"/><rect codeLine="29" fill="none" height="335.8968" id="Tablero" rx="4.1667" ry="4.1667" style="stroke:#2FA4E7;stroke-width:1.0416666666666667;" width="200" x="351.5625" y="440.9063"/><ellipse cx="419.7917" cy="457.992" fill="none" rx="10.4167" ry="10.4167" style="stroke:#2683B9;stroke-width:1.0416666666666667;"/><path d="M421.696,462.4191 Q421.2728,462.6307 420.8008,462.7446 Q420.3288,462.8586 419.8242,462.8586 Q417.9688,462.8586 416.9922,461.6541 Q416.0319,460.4334 416.0319,458.1385 Q416.0319,455.8273 416.9922,454.6229 Q417.9688,453.4022 419.8242,453.4022 Q420.3288,453.4022 420.8008,453.5161 Q421.2891,453.6138 421.696,453.8416 L421.696,455.8436 Q421.2402,455.4204 420.8008,455.2251 Q420.3613,455.0135 419.9056,455.0135 Q418.9128,455.0135 418.4082,455.811 Q417.9036,456.5923 417.9036,458.1385 Q417.9036,459.6685 418.4082,460.4497 Q418.9128,461.231 419.9056,461.231 Q420.3613,461.231 420.8008,461.0356 Q421.2402,460.8403 421.696,460.4172 L421.696,462.4191 Z " fill="#FFFFFF"/><text fill="#F8F9FA" font-family="Verdana" font-size="11.4583" lengthAdjust="spacing" textLength="44.7917" x="444.7917" y="461.9588">Tablero</text><line style="stroke:#2FA4E7;stroke-width:1.0416666666666667;" x1="352.6042" x2="550.5208" y1="475.0778" y2="475.0778"/><rect fill="none" height="6.25" style="stroke:#2683B9;stroke-width:1.0416666666666667;" width="6.25" x="359.8958" y="489.5594"/><text fill="#F8F9FA" font-family="Verdana" font-size="11.4583" lengthAdjust="spacing" textLength="113.5417" x="376.5625" y="495.0887">tablero: boolean[][]</text><rect fill="none" height="6.25" style="stroke:#2683B9;stroke-width:1.0416666666666667;" width="6.25" x="359.8958" y="513.3143"/><text fill="#F8F9FA" font-family="Verdana" font-size="11.4583" lengthAdjust="spacing" textLength="163.5417" x="376.5625" y="518.8436">tablero_original: boolean[][]</text><rect fill="none" height="6.25" style="stroke:#2683B9;stroke-width:1.0416666666666667;" width="6.25" x="359.8958" y="537.0692"/><text fill="#F8F9FA" font-family="Verdana" font-size="11.4583" lengthAdjust="spacing" textLength="69.7917" x="376.5625" y="542.5984">jugadas: int</text><line style="stroke:#2FA4E7;stroke-width:1.0416666666666667;" x1="352.6042" x2="550.5208" y1="554.6758" y2="554.6758"/><ellipse cx="363.0208" cy="572.2824" fill="none" rx="3.125" ry="3.125" style="stroke:#2683B9;stroke-width:1.0416666666666667;"/><text fill="#F8F9FA" font-family="Verdana" font-size="11.4583" lengthAdjust="spacing" textLength="116.6667" x="376.5625" y="574.6867">Tablero(int tamano)</text><ellipse cx="363.0208" cy="596.0373" fill="none" rx="3.125" ry="3.125" style="stroke:#2683B9;stroke-width:1.0416666666666667;"/><text fill="#F8F9FA" font-family="Verdana" font-size="11.4583" lengthAdjust="spacing" textLength="56.25" x="376.5625" y="598.4415">reiniciar()</text><ellipse cx="363.0208" cy="619.7922" fill="none" rx="3.125" ry="3.125" style="stroke:#2683B9;stroke-width:1.0416666666666667;"/><text fill="#F8F9FA" font-family="Verdana" font-size="11.4583" lengthAdjust="spacing" textLength="92.7083" x="376.5625" y="622.1964">salvar_tablero()</text><ellipse cx="363.0208" cy="643.547" fill="none" rx="3.125" ry="3.125" style="stroke:#2683B9;stroke-width:1.0416666666666667;"/><text fill="#F8F9FA" font-family="Verdana" font-size="11.4583" lengthAdjust="spacing" textLength="148.9583" x="376.5625" y="645.9513">desordenar(int dificultad)</text><ellipse cx="363.0208" cy="667.3019" fill="none" rx="3.125" ry="3.125" style="stroke:#2683B9;stroke-width:1.0416666666666667;"/><text fill="#F8F9FA" font-family="Verdana" font-size="11.4583" lengthAdjust="spacing" textLength="75" x="376.5625" y="669.7062">darJugadas()</text><ellipse cx="363.0208" cy="691.0568" fill="none" rx="3.125" ry="3.125" style="stroke:#2683B9;stroke-width:1.0416666666666667;"/><text fill="#F8F9FA" font-family="Verdana" font-size="11.4583" lengthAdjust="spacing" textLength="72.9167" x="376.5625" y="693.4611">darTablero()</text><ellipse cx="363.0208" cy="714.8117" fill="none" rx="3.125" ry="3.125" style="stroke:#2683B9;stroke-width:1.0416666666666667;"/><text fill="#F8F9FA" font-family="Verdana" font-size="11.4583" lengthAdjust="spacing" textLength="152.0833" x="376.5625" y="717.216">jugar(int fila, int columna)</text><ellipse cx="363.0208" cy="738.5666" fill="none" rx="3.125" ry="3.125" style="stroke:#2683B9;stroke-width:1.0416666666666667;"/><text fill="#F8F9FA" font-family="Verdana" font-size="11.4583" lengthAdjust="spacing" textLength="107.2917" x="376.5625" y="740.9708">tableroIluminado()</text><ellipse cx="363.0208" cy="762.3215" fill="none" rx="3.125" ry="3.125" style="stroke:#2683B9;stroke-width:1.0416666666666667;"/><text fill="#F8F9FA" font-family="Verdana" font-size="11.4583" lengthAdjust="spacing" textLength="97.9167" x="376.5625" y="764.7257">calcularPuntaje()</text></g><!--class Top10--><g id="elem_Top10"><rect codeLine="44" fill="url(#g1qwj7o11s0gwu0)" height="240.8773" id="Top10" rx="4.1667" ry="4.1667" style="stroke:#2FA4E7;stroke-width:1.0416666666666667;" width="296.875" x="17.7083" y="488.4167"/><rect fill="url(#g1qwj7o11s0gwu1)" height="34.1715" rx="4.1667" ry="4.1667" style="stroke:url(#g1qwj7o11s0gwu1);stroke-width:1.0416666666666667;" width="296.875" x="17.7083" y="488.4167"/><rect fill="url(#g1qwj7o11s0gwu1)" height="4.1667" style="stroke:url(#g1qwj7o11s0gwu1);stroke-width:1.0416666666666667;" width="296.875" x="17.7083" y="518.4215"/><rect codeLine="44" fill="none" height="240.8773" id="Top10" rx="4.1667" ry="4.1667" style="stroke:#2FA4E7;stroke-width:1.0416666666666667;" width="296.875" x="17.7083" y="488.4167"/><ellipse cx="138.5417" cy="505.5024" fill="none" rx="10.4167" ry="10.4167" style="stroke:#2683B9;stroke-width:1.0416666666666667;"/><path d="M140.446,509.9295 Q140.0228,510.1411 139.5508,510.255 Q139.0788,510.369 138.5742,510.369 Q136.7188,510.369 135.7422,509.1646 Q134.7819,507.9438 134.7819,505.6489 Q134.7819,503.3377 135.7422,502.1333 Q136.7188,500.9126 138.5742,500.9126 Q139.0788,500.9126 139.5508,501.0265 Q140.0391,501.1242 140.446,501.3521 L140.446,503.354 Q139.9902,502.9308 139.5508,502.7355 Q139.1113,502.5239 138.6556,502.5239 Q137.6628,502.5239 137.1582,503.3215 Q136.6536,504.1027 136.6536,505.6489 Q136.6536,507.1789 137.1582,507.9601 Q137.6628,508.7414 138.6556,508.7414 Q139.1113,508.7414 139.5508,508.5461 Q139.9902,508.3507 140.446,507.9276 L140.446,509.9295 Z " fill="#FFFFFF"/><text fill="#F8F9FA" font-family="Verdana" font-size="11.4583" lengthAdjust="spacing" textLength="36.4583" x="163.5417" y="509.4692">Top10</text><line style="stroke:#2FA4E7;stroke-width:1.0416666666666667;" x1="18.75" x2="313.5417" y1="522.5882" y2="522.5882"/><rect fill="none" height="6.25" style="stroke:#2683B9;stroke-width:1.0416666666666667;" width="6.25" x="26.0417" y="537.0698"/><text fill="#F8F9FA" font-family="Verdana" font-size="11.4583" lengthAdjust="spacing" textLength="156.25" x="42.7083" y="542.5991">registros: RegistroTop10[]</text><rect fill="none" height="6.25" style="stroke:#2683B9;stroke-width:1.0416666666666667;" width="6.25" x="26.0417" y="560.8247"/><text fill="#F8F9FA" font-family="Verdana" font-size="11.4583" lengthAdjust="spacing" textLength="93.75" x="42.7083" y="566.354">peorPuntaje: int</text><line style="stroke:#2FA4E7;stroke-width:1.0416666666666667;" x1="18.75" x2="313.5417" y1="578.4313" y2="578.4313"/><ellipse cx="29.1667" cy="596.0379" fill="none" rx="3.125" ry="3.125" style="stroke:#2683B9;stroke-width:1.0416666666666667;"/><text fill="#F8F9FA" font-family="Verdana" font-size="11.4583" lengthAdjust="spacing" textLength="44.7917" x="42.7083" y="598.4422">Top10()</text><ellipse cx="29.1667" cy="619.7928" fill="none" rx="3.125" ry="3.125" style="stroke:#2683B9;stroke-width:1.0416666666666667;"/><text fill="#F8F9FA" font-family="Verdana" font-size="11.4583" lengthAdjust="spacing" textLength="121.875" x="42.7083" y="622.1971">esTop10(int puntaje)</text><ellipse cx="29.1667" cy="643.5477" fill="none" rx="3.125" ry="3.125" style="stroke:#2683B9;stroke-width:1.0416666666666667;"/><text fill="#F8F9FA" font-family="Verdana" font-size="11.4583" lengthAdjust="spacing" textLength="260.4167" x="42.7083" y="645.952">agregarRegistro(String nombre, int puntaje)</text><ellipse cx="29.1667" cy="667.3026" fill="none" rx="3.125" ry="3.125" style="stroke:#2683B9;stroke-width:1.0416666666666667;"/><text fill="#F8F9FA" font-family="Verdana" font-size="11.4583" lengthAdjust="spacing" textLength="84.375" x="42.7083" y="669.7068">darRegistros()</text><ellipse cx="29.1667" cy="691.0575" fill="none" rx="3.125" ry="3.125" style="stroke:#2683B9;stroke-width:1.0416666666666667;"/><text fill="#F8F9FA" font-family="Verdana" font-size="11.4583" lengthAdjust="spacing" textLength="159.375" x="42.7083" y="693.4617">salvarRecords(File archivo)</text><ellipse cx="29.1667" cy="714.8123" fill="none" rx="3.125" ry="3.125" style="stroke:#2683B9;stroke-width:1.0416666666666667;"/><text fill="#F8F9FA" font-family="Verdana" font-size="11.4583" lengthAdjust="spacing" textLength="161.4583" x="42.7083" y="717.2166">cargarRecords(File archivo)</text></g><!--class RegistroTop10--><g id="elem_RegistroTop10"><rect codeLine="55" fill="url(#g1qwj7o11s0gwu0)" height="193.3675" id="RegistroTop10" rx="4.1667" ry="4.1667" style="stroke:#2FA4E7;stroke-width:1.0416666666666667;" width="283.3333" x="24.4792" y="840.3438"/><rect fill="url(#g1qwj7o11s0gwu1)" height="34.1715" rx="4.1667" ry="4.1667" style="stroke:url(#g1qwj7o11s0gwu1);stroke-width:1.0416666666666667;" width="283.3333" x="24.4792" y="840.3438"/><rect fill="url(#g1qwj7o11s0gwu1)" height="4.1667" style="stroke:url(#g1qwj7o11s0gwu1);stroke-width:1.0416666666666667;" width="283.3333" x="24.4792" y="870.3486"/><rect codeLine="55" fill="none" height="193.3675" id="RegistroTop10" rx="4.1667" ry="4.1667" style="stroke:#2FA4E7;stroke-width:1.0416666666666667;" width="283.3333" x="24.4792" y="840.3438"/><ellipse cx="114.0625" cy="857.4295" fill="none" rx="10.4167" ry="10.4167" style="stroke:#2683B9;stroke-width:1.0416666666666667;"/><path d="M115.9668,861.8566 Q115.5436,862.0682 115.0716,862.1821 Q114.5996,862.2961 114.0951,862.2961 Q112.2396,862.2961 111.263,861.0916 Q110.3027,859.8709 110.3027,857.576 Q110.3027,855.2648 111.263,854.0604 Q112.2396,852.8397 114.0951,852.8397 Q114.5996,852.8397 115.0716,852.9536 Q115.5599,853.0513 115.9668,853.2791 L115.9668,855.2811 Q115.5111,854.8579 115.0716,854.6626 Q114.6322,854.451 114.1764,854.451 Q113.1836,854.451 112.679,855.2485 Q112.1745,856.0298 112.1745,857.576 Q112.1745,859.106 112.679,859.8872 Q113.1836,860.6685 114.1764,860.6685 Q114.6322,860.6685 115.0716,860.4731 Q115.5111,860.2778 115.9668,859.8547 L115.9668,861.8566 Z " fill="#FFFFFF"/><text fill="#F8F9FA" font-family="Verdana" font-size="11.4583" lengthAdjust="spacing" textLength="85.4167" x="139.0625" y="861.3963">RegistroTop10</text><line style="stroke:#2FA4E7;stroke-width:1.0416666666666667;" x1="25.5208" x2="306.7708" y1="874.5153" y2="874.5153"/><rect fill="none" height="6.25" style="stroke:#2683B9;stroke-width:1.0416666666666667;" width="6.25" x="32.8125" y="888.9969"/><text fill="#F8F9FA" font-family="Verdana" font-size="11.4583" lengthAdjust="spacing" textLength="89.5833" x="49.4792" y="894.5262">nombre: String</text><rect fill="none" height="6.25" style="stroke:#2683B9;stroke-width:1.0416666666666667;" width="6.25" x="32.8125" y="912.7518"/><text fill="#F8F9FA" font-family="Verdana" font-size="11.4583" lengthAdjust="spacing" textLength="63.5417" x="49.4792" y="918.2811">puntos: int</text><line style="stroke:#2FA4E7;stroke-width:1.0416666666666667;" x1="25.5208" x2="306.7708" y1="930.3584" y2="930.3584"/><ellipse cx="35.9375" cy="947.965" fill="none" rx="3.125" ry="3.125" style="stroke:#2683B9;stroke-width:1.0416666666666667;"/><text fill="#F8F9FA" font-family="Verdana" font-size="11.4583" lengthAdjust="spacing" textLength="246.875" x="49.4792" y="950.3693">RegistroTop10(String nombre, int puntos)</text><ellipse cx="35.9375" cy="971.7199" fill="none" rx="3.125" ry="3.125" style="stroke:#2683B9;stroke-width:1.0416666666666667;"/><text fill="#F8F9FA" font-family="Verdana" font-size="11.4583" lengthAdjust="spacing" textLength="68.75" x="49.4792" y="974.1242">darPuntos()</text><ellipse cx="35.9375" cy="995.4748" fill="none" rx="3.125" ry="3.125" style="stroke:#2683B9;stroke-width:1.0416666666666667;"/><text fill="#F8F9FA" font-family="Verdana" font-size="11.4583" lengthAdjust="spacing" textLength="75" x="49.4792" y="997.879">darNombre()</text><ellipse cx="35.9375" cy="1019.2297" fill="none" rx="3.125" ry="3.125" style="stroke:#2683B9;stroke-width:1.0416666666666667;"/><text fill="#F8F9FA" font-family="Verdana" font-size="11.4583" lengthAdjust="spacing" textLength="55.2083" x="49.4792" y="1021.6339">toString()</text></g><!--class JFrame--><g id="elem_JFrame"><rect fill="url(#g1qwj7o11s0gwu0)" height="50.8382" id="JFrame" rx="4.1667" ry="4.1667" style="stroke:#2FA4E7;stroke-width:1.0416666666666667;" width="82.2917" x="705.2083" y="583.4271"/><rect fill="url(#g1qwj7o11s0gwu1)" height="34.1715" rx="4.1667" ry="4.1667" style="stroke:url(#g1qwj7o11s0gwu1);stroke-width:1.0416666666666667;" width="82.2917" x="705.2083" y="583.4271"/><rect fill="url(#g1qwj7o11s0gwu1)" height="4.1667" style="stroke:url(#g1qwj7o11s0gwu1);stroke-width:1.0416666666666667;" width="82.2917" x="705.2083" y="613.432"/><rect fill="none" height="50.8382" id="JFrame" rx="4.1667" ry="4.1667" style="stroke:#2FA4E7;stroke-width:1.0416666666666667;" width="82.2917" x="705.2083" y="583.4271"/><ellipse cx="719.7917" cy="600.5129" fill="none" rx="10.4167" ry="10.4167" style="stroke:#2683B9;stroke-width:1.0416666666666667;"/><path d="M721.696,604.9399 Q721.2728,605.1515 720.8008,605.2655 Q720.3288,605.3794 719.8242,605.3794 Q717.9688,605.3794 716.9922,604.175 Q716.0319,602.9543 716.0319,600.6593 Q716.0319,598.3481 716.9922,597.1437 Q717.9688,595.923 719.8242,595.923 Q720.3288,595.923 720.8008,596.0369 Q721.2891,596.1346 721.696,596.3625 L721.696,598.3644 Q721.2402,597.9412 720.8008,597.7459 Q720.3613,597.5343 719.9056,597.5343 Q718.9128,597.5343 718.4082,598.3319 Q717.9036,599.1131 717.9036,600.6593 Q717.9036,602.1893 718.4082,602.9705 Q718.9128,603.7518 719.9056,603.7518 Q720.3613,603.7518 720.8008,603.5565 Q721.2402,603.3612 721.696,602.938 L721.696,604.9399 Z " fill="#FFFFFF"/><text fill="#F8F9FA" font-family="Verdana" font-size="11.4583" lengthAdjust="spacing" textLength="40.625" x="738.5417" y="604.4796">JFrame</text><line style="stroke:#2FA4E7;stroke-width:1.0416666666666667;" x1="706.25" x2="786.4583" y1="617.5986" y2="617.5986"/><line style="stroke:#2FA4E7;stroke-width:1.0416666666666667;" x1="706.25" x2="786.4583" y1="625.932" y2="625.932"/></g><!--class JPanel--><g id="elem_JPanel"><rect fill="url(#g1qwj7o11s0gwu0)" height="50.8382" id="JPanel" rx="4.1667" ry="4.1667" style="stroke:#2FA4E7;stroke-width:1.0416666666666667;" width="77.0833" x="951.5625" y="911.6042"/><rect fill="url(#g1qwj7o11s0gwu1)" height="34.1715" rx="4.1667" ry="4.1667" style="stroke:url(#g1qwj7o11s0gwu1);stroke-width:1.0416666666666667;" width="77.0833" x="951.5625" y="911.6042"/><rect fill="url(#g1qwj7o11s0gwu1)" height="4.1667" style="stroke:url(#g1qwj7o11s0gwu1);stroke-width:1.0416666666666667;" width="77.0833" x="951.5625" y="941.609"/><rect fill="none" height="50.8382" id="JPanel" rx="4.1667" ry="4.1667" style="stroke:#2FA4E7;stroke-width:1.0416666666666667;" width="77.0833" x="951.5625" y="911.6042"/><ellipse cx="966.1458" cy="928.6899" fill="none" rx="10.4167" ry="10.4167" style="stroke:#2683B9;stroke-width:1.0416666666666667;"/><path d="M968.0501,933.117 Q967.627,933.3286 967.1549,933.4425 Q966.6829,933.5565 966.1784,933.5565 Q964.3229,933.5565 963.3464,932.3521 Q962.3861,931.1313 962.3861,928.8364 Q962.3861,926.5252 963.3464,925.3208 Q964.3229,924.1001 966.1784,924.1001 Q966.6829,924.1001 967.1549,924.214 Q967.6432,924.3117 968.0501,924.5396 L968.0501,926.5415 Q967.5944,926.1183 967.1549,925.923 Q966.7155,925.7114 966.2598,925.7114 Q965.2669,925.7114 964.7624,926.509 Q964.2578,927.2902 964.2578,928.8364 Q964.2578,930.3664 964.7624,931.1476 Q965.2669,931.9289 966.2598,931.9289 Q966.7155,931.9289 967.1549,931.7336 Q967.5944,931.5382 968.0501,931.1151 L968.0501,933.117 Z " fill="#FFFFFF"/><text fill="#F8F9FA" font-family="Verdana" font-size="11.4583" lengthAdjust="spacing" textLength="35.4167" x="984.8958" y="932.6567">JPanel</text><line style="stroke:#2FA4E7;stroke-width:1.0416666666666667;" x1="952.6042" x2="1027.6042" y1="945.7757" y2="945.7757"/><line style="stroke:#2FA4E7;stroke-width:1.0416666666666667;" x1="952.6042" x2="1027.6042" y1="954.109" y2="954.109"/></g><!--link Vista to JFrame--><g id="link_Vista_JFrame"><path codeLine="64" d="M777.9688,377.7708 C767.0104,457.5104 757.8879,523.8936 752.2837,564.6436 " fill="none" id="Vista-to-JFrame" style="stroke:#2FA4E7;stroke-width:3.125;"/><polygon fill="none" points="749.7292,583.2188,758.4754,565.4951,746.092,563.7921,749.7292,583.2188" style="stroke:#2FA4E7;stroke-width:3.125;"/></g><!--link Lienzo to JPanel--><g id="link_Lienzo_JPanel"><path codeLine="65" d="M1266.4167,717.8125 C1246.9688,738.0729 1226.1875,758.5938 1205.7292,776.8021 C1147.1563,828.9167 1087.8362,870.9317 1043.4925,900.7129 " fill="none" id="Lienzo-to-JPanel" style="stroke:#2FA4E7;stroke-width:3.125;"/><polygon fill="none" points="1027.9271,911.1667,1046.9771,905.9014,1040.0079,895.5245,1027.9271,911.1667" style="stroke:#2FA4E7;stroke-width:3.125;"/></g><!--reverse link Vista to Lienzo--><g id="link_Vista_Lienzo"><path codeLine="66" d="M899.9733,247.1985 C984.7858,291.3443 1104.7604,359.2813 1205.7292,440.9063 C1227.6458,458.6146 1249.4271,479.3438 1269.4583,500.0521 " fill="none" id="Vista-backto-Lienzo" style="stroke:#2FA4E7;stroke-width:3.125;"/><polygon fill="#2FA4E7" points="888.8854,241.4271,892.5056,248.0087,899.9733,247.1985,896.3532,240.6168,888.8854,241.4271" style="stroke:#2FA4E7;stroke-width:3.125;"/><text fill="#343A40" font-family="Verdana" font-size="12.5" lengthAdjust="spacing" textLength="8.3333" x="902.0153" y="236.9645">1</text><text fill="#343A40" font-family="Verdana" font-size="12.5" lengthAdjust="spacing" textLength="8.3333" x="1248.1153" y="483.6963">1</text></g><!--reverse link Vista to Tablero--><g id="link_Vista_Tablero"><path codeLine="67" d="M707.5399,290.1447 C669.7274,327.8113 634.4688,364.8542 597.3958,408.6146 C582.1563,426.5938 566.7396,446.0521 551.9167,465.5104 " fill="none" id="Vista-backto-Tablero" style="stroke:#2FA4E7;stroke-width:3.125;"/><polygon fill="#2FA4E7" points="716.3958,281.3229,709.0273,282.7818,707.5399,290.1447,714.9085,288.6858,716.3958,281.3229" style="stroke:#2FA4E7;stroke-width:3.125;"/><text fill="#343A40" font-family="Verdana" font-size="12.5" lengthAdjust="spacing" textLength="8.3333" x="694.9387" y="280.1642">1</text><text fill="#343A40" font-family="Verdana" font-size="12.5" lengthAdjust="spacing" textLength="8.3333" x="565.1832" y="446.9937">1</text></g><!--reverse link Vista to Top10--><g id="link_Vista_Top10"><path codeLine="68" d="M704.6649,238.3635 C606.7794,280.0197 456.3646,350.6042 332.8125,440.9063 C313.4688,455.0417 294.2708,471.4271 276.1458,488.3021 " fill="none" id="Vista-backto-Top10" style="stroke:#2FA4E7;stroke-width:3.125;"/><polygon fill="#2FA4E7" points="716.1667,233.4688,708.7842,232.0822,704.6649,238.3635,712.0473,239.7501,716.1667,233.4688" style="stroke:#2FA4E7;stroke-width:3.125;"/><text fill="#343A40" font-family="Verdana" font-size="12.5" lengthAdjust="spacing" textLength="8.3333" x="694.6905" y="228.3471">1</text><text fill="#343A40" font-family="Verdana" font-size="12.5" lengthAdjust="spacing" textLength="8.3333" x="269.6794" y="471.8717">1</text></g><!--reverse link Vista to JPanel--><g id="link_Vista_JPanel"><path codeLine="69" d="M709.0071,310.1222 C679.455,351.1535 657.3438,390.5417 642.1875,440.9063 C599.1563,583.8542 561.5208,651.1771 642.1875,776.8021 C711.9063,885.3646 876.1354,920.8229 951.3125,931.6146 " fill="none" id="Vista-backto-JPanel" style="stroke:#2FA4E7;stroke-width:3.125;"/><polygon fill="#2FA4E7" points="716.3125,299.9792,709.2788,302.6156,709.0071,310.1222,716.0408,307.4858,716.3125,299.9792" style="stroke:#2FA4E7;stroke-width:3.125;"/><text fill="#343A40" font-family="Verdana" font-size="12.5" lengthAdjust="spacing" textLength="32.2917" x="648.4375" y="613.6861">base</text><text fill="#343A40" font-family="Verdana" font-size="12.5" lengthAdjust="spacing" textLength="8.3333" x="694.8484" y="326.3078">1</text><text fill="#343A40" font-family="Verdana" font-size="12.5" lengthAdjust="spacing" textLength="8.3333" x="929.7932" y="921.6711">1</text></g><!--reverse link Vista to JPanel--><g id="link_Vista_JPanel"><path codeLine="70" d="M810.558,390.159 C819.7871,506.909 839.9167,648.3958 888.0208,776.8021 C907.4896,828.7604 945.7396,881.4896 969.4896,911.3229 " fill="none" id="Vista-backto-JPanel-1" style="stroke:#2FA4E7;stroke-width:3.125;"/><polygon fill="#2FA4E7" points="809.5729,377.6979,805.9117,384.2568,810.558,390.159,814.2192,383.6001,809.5729,377.6979" style="stroke:#2FA4E7;stroke-width:3.125;"/><text fill="#343A40" font-family="Verdana" font-size="12.5" lengthAdjust="spacing" textLength="44.7917" x="894.2708" y="613.6861">pAbajo</text><text fill="#343A40" font-family="Verdana" font-size="12.5" lengthAdjust="spacing" textLength="8.3333" x="795.9297" y="402.6363">1</text><text fill="#343A40" font-family="Verdana" font-size="12.5" lengthAdjust="spacing" textLength="8.3333" x="948.638" y="895.1143">1</text></g><!--reverse link Vista to JPanel--><g id="link_Vista_JPanel"><path codeLine="71" d="M895.6347,327.1134 C919.2389,365.0509 935.5313,397.8438 949.4792,440.9063 C1005.5104,613.8021 996.8229,837.5521 992,911.25 " fill="none" id="Vista-backto-JPanel-2" style="stroke:#2FA4E7;stroke-width:3.125;"/><polygon fill="#2FA4E7" points="889.0313,316.5,888.7952,324.0079,895.6347,327.1134,895.8708,319.6055,889.0313,316.5" style="stroke:#2FA4E7;stroke-width:3.125;"/><text fill="#343A40" font-family="Verdana" font-size="12.5" lengthAdjust="spacing" textLength="46.875" x="1001.5625" y="613.6861">pArriba</text><text fill="#343A40" font-family="Verdana" font-size="12.5" lengthAdjust="spacing" textLength="8.3333" x="902.1732" y="318.2544">1</text><text fill="#343A40" font-family="Verdana" font-size="12.5" lengthAdjust="spacing" textLength="8.3333" x="976.6353" y="895.0236">1</text></g><!--reverse link Vista to JPanel--><g id="link_Vista_JPanel"><path codeLine="72" d="M899.048,257.891 C960.3605,300.4743 1027.6354,359.6458 1063.0208,440.9063 C1122.625,577.7813 1094.8333,630.9375 1063.0208,776.8021 C1052.0104,827.2917 1023.4688,880.9167 1005.5313,911.25 " fill="none" id="Vista-backto-JPanel-3" style="stroke:#2FA4E7;stroke-width:3.125;"/><polygon fill="#2FA4E7" points="888.7813,250.7604,891.5378,257.7479,899.048,257.891,896.2915,250.9034,888.7813,250.7604" style="stroke:#2FA4E7;stroke-width:3.125;"/><text fill="#343A40" font-family="Verdana" font-size="12.5" lengthAdjust="spacing" textLength="62.5" x="1103.6458" y="613.6861">pBotones</text><text fill="#343A40" font-family="Verdana" font-size="12.5" lengthAdjust="spacing" textLength="8.3333" x="902.2011" y="273.2185">1</text><text fill="#343A40" font-family="Verdana" font-size="12.5" lengthAdjust="spacing" textLength="8.3333" x="1016.7851" y="895.0236">1</text></g><!--reverse link Top10 to RegistroTop10--><g id="link_Top10_RegistroTop10"><path codeLine="73" d="M166.1458,741.9688 C166.1458,778.3229 166.1458,805.2813 166.1458,839.8854 " fill="none" id="Top10-backto-RegistroTop10" style="stroke:#2FA4E7;stroke-width:3.125;"/><polygon fill="#2FA4E7" points="166.1458,729.4688,161.9792,735.7188,166.1458,741.9688,170.3125,735.7188,166.1458,729.4688" style="stroke:#2FA4E7;stroke-width:3.125;"/><text fill="#343A40" font-family="Verdana" font-size="12.5" lengthAdjust="spacing" textLength="6.25" x="154.1797" y="754.3905">*</text><text fill="#343A40" font-family="Verdana" font-size="12.5" lengthAdjust="spacing" textLength="8.3333" x="151.8278" y="823.7434">1</text></g><!--SRC=[VLHDRzim3BtdLsWvUUq2jDSS1gm3CZGOYg0BTYcAWhPPHu4i6fGS3FluxvD5sR6RD2T9ZuyVZxJvmU-mHbKWjmR1pcQ50UVKJ-qyg3ypfHOg1uTBjTw0HHE1vaiEUte3CUiS9fZHQ7y7slTu2ksEF5bq4vw7t207ubOk0b9pUnEWxeZ0lgsWXE2fhHy3M_pbGxZkM6aqvT56VCPsBTAoZ_5-5wIbQqtECt1C6A1_VIUa-jGA3pLOEjOmb9uJTUrxUdvwZj74Amkyv7DlTQ71I2w7VXlHIB0j7aZUOgu6yuWU4sMZFBrVD0YnWH3lAzLDwB7rsJU6PgSBfwgHdkGm23ehO32y4EjAMp2dZ3S3kUuZZqHBLOmwYkTU3fW3y4lAaC0I7N69Dh0w_rA_wg8r7ifa1bvBlcm0jfC0NJdY-weDVEggKWMPjhOWX9JlFa11KDdx5M128k1DQptiSJpw-2saHZ5MuRjX2deVqpMQKpCQf3x2g27fM-hkwEJLbTK8KGnGXT30VT3iXsTjAsMfpXb5neHV7hbkqj17B487NRRI1XLmiTC7wYLozPvz43jHbKHB4KibDOdGK0kDXZvnUwzuSaFjc_Wy3l4XKjFRamIG8SWEMYp-VbRh5KEDi_Gl2YGBH4ZpsxcwMYpYcTRDgQ5VBsSiSSkSuf93BUCAl6INZNYP4HVaHKfQZZCPmVpgo9bq-Jy0]--></g></svg>